inDegrees=yes
name=ik_l_comf_01-000_orientations
DataType=double
version=3
OpenSimVersion=4.5.1-2024-10-23-33f3f5902
endheader
time	pelvis_tilt	pelvis_list	pelvis_rotation	pelvis_tx	pelvis_ty	pelvis_tz	hip_flexion_r	hip_adduction_r	hip_rotation_r	knee_angle_r	ankle_angle_r	subtalar_angle_r	mtp_angle_r	hip_flexion_l	hip_adduction_l	hip_rotation_l	knee_angle_l	ankle_angle_l	subtalar_angle_l	mtp_angle_l	lumbar_extension	lumbar_bending	lumbar_rotation
6.075000000000019	-4.208287235764397	-0.9563356120068817	-21.35174284418515	0	0.95	0	28.73941881225413	-0.88346195509752	-4.976269250408709	-14.19663942972295	-2.557272447189668	1.055109036102875	0	-8.849781521777295	-6.883958061732791	2.239236078350224	-9.581162698723059	5.777155095728749	5.064156655727317	0	0	0	0
6.100000000000019	-4.015489621323563	-1.140006762575555	-21.48636219067194	0	0.95	0	27.76077807698816	-0.4565107023316416	-5.420799302744052	-14.35572927599859	-2.635768448226005	1.167507361116554	0	-9.220889348099854	-7.446906073254929	2.272441550173964	-10.72335469309949	4.392955496911044	5.438830767968168	0	0	0	0
6.12500000000002	-3.79745999102827	-1.459990600294039	-21.74793690220717	0	0.95	0	26.94943798641712	0.1313811022643987	-5.576951808176602	-14.81449882365902	-2.470386500526941	1.960430374250648	0	-9.576370685109389	-8.072779469116272	2.218586613149443	-12.05958006013756	2.791786053378698	5.672595796043571	0	0	0	0
6.15000000000002	-3.670143190502017	-1.767652372718851	-22.08298411626245	0	0.95	0	26.44162204558766	0.6470704769245254	-5.353531144104271	-15.47063117387693	-2.184371572250491	2.738320741822798	0	-9.718358865595068	-8.645441493959053	2.181287382117254	-13.65212726910557	0.936392456957714	5.793185405388178	0	0	0	0
6.17500000000002	-3.518336901267574	-2.060549804543319	-22.37081783546562	0	0.95	0	26.18855084692157	1.18649372963466	-4.903182013206673	-16.24368175328423	-2.216317101016036	2.489694499001324	0	-9.631635450055795	-9.144427326503694	2.230431734476679	-15.54968591044942	-1.325348831657159	5.865302426573938	0	0	0	0
6.200000000000021	-3.410740381155136	-2.27031736166076	-22.66140196773072	0	0.95	0	25.97735699154358	1.839231154494523	-4.422288847890227	-16.85391515497581	-2.277661387099422	1.630315433773046	0	-9.318777420829727	-9.542008082293522	2.310218308551557	-17.75239640521658	-4.076684177658803	5.617097177735888	0	0	0	0
6.225000000000021	-3.263639580626165	-2.454084423893918	-22.9645217695307	0	0.95	0	25.57477587960749	2.436378669466135	-3.900788909628689	-17.27146086838768	-2.253048143018767	0.7588801375991602	0	-8.817949288400294	-9.957915643743894	2.448986785163849	-20.22923882130689	-7.542262051922724	4.834323021135562	0	0	0	0
6.250000000000021	-3.166332273876522	-2.585875032015684	-23.25466192545109	0	0.95	0	24.85033400371637	2.989057748437952	-3.35567242214406	-17.19062053697231	-2.123395891826946	0.1230609315646258	0	-8.155577340224118	-10.38500447447656	2.370378258846074	-22.86699391457097	-11.40084191302616	3.773263108390268	0	0	0	0
6.275000000000022	-3.044755941049003	-2.704045642266227	-23.50402852664745	0	0.95	0	23.76402038159245	3.509382986384054	-2.767163601658698	-16.72001922096212	-2.08125222308802	-0.3972209990543526	0	-7.234555931200964	-10.70523280207829	2.477490220897363	-25.61609536628979	-15.60363874586047	2.424269632726591	0	0	0	0
6.300000000000022	-2.991467425150191	-2.78270606535668	-23.75985919761611	0	0.95	0	22.54124210223713	4.049130629059237	-2.14245582987542	-15.97251224868955	-2.044516577709161	-0.940114103369733	0	-6.062439021579768	-10.65207631975123	2.926414516222902	-28.53702740528628	-19.5370803122293	0.8556657846836395	0	0	0	0
6.325000000000022	-2.929785246169581	-2.885031089362218	-24.04584439617062	0	0.95	0	21.31839588055968	4.424124014026916	-1.655655683664689	-15.31940225085438	-1.854996673049811	-1.24961119794294	0	-4.574294968233392	-10.29117681019264	3.852971160335425	-31.64983891982376	-22.51769608196637	-0.5382357939866442	0	0	0	0
6.350000000000023	-2.910473522741688	-2.959156111668591	-24.3472163751917	0	0.95	0	20.23661638870763	4.693683106337395	-1.355605445296731	-14.79441254375213	-1.514388423273789	-1.291710964795688	0	-2.912501871903008	-9.930412205680192	5.015459594962016	-35.26757026586741	-23.63613141681256	-1.623994390269115	0	0	0	0
6.375000000000023	-2.882089668538085	-3.076638946315596	-24.6556665159308	0	0.95	0	19.25985146538179	4.916601750287781	-1.310583427826654	-14.44966723491875	-1.044763755935956	-1.18945076291886	0	-1.122377666529933	-9.434314890088025	6.155274833828884	-38.95089414606232	-22.88797802820487	-2.524901556391996	0	0	0	0
6.400000000000023	-2.872707924334415	-3.172964036578364	-25.00383699166782	0	0.95	0	18.43712440320755	5.09698875603687	-1.429796051274335	-14.19901495847147	-0.6083544236290673	-0.9116390142148559	0	0.592822946075271	-9.093705796090886	6.807756821815644	-42.2648615538775	-20.86811274009041	-3.043684260011184	0	0	0	0
6.425000000000024	-2.816968011737516	-3.313993672930152	-25.39276049390558	0	0.95	0	17.55720450640139	5.290313367548379	-1.595533234135212	-13.92591318777533	-0.1840625566020437	-0.5737649029181758	0	2.144567850783158	-8.881596774418176	7.304804125396982	-44.82224177314361	-18.95346129494335	-3.892236014021611	0	0	0	0
6.450000000000024	-2.769456841509862	-3.436286030332483	-25.80673651311029	0	0.95	0	16.63658028826158	5.502196475961097	-1.693883643681027	-13.50731314058411	0.1935851782593921	-0.2420321625332541	0	3.461866733659403	-8.98651442244984	7.408400092866823	-46.87855841720875	-17.39316881869167	-4.676114678305099	0	0	0	0
6.475000000000025	-2.697247886029087	-3.545147476893934	-26.2124998108442	0	0.95	0	15.61306428409817	5.725935791920396	-1.710286145139675	-12.97295721205391	0.5153856337367143	0.02409515804515099	0	4.760648730098179	-9.26571615590526	7.271419425903408	-48.48697067647474	-15.67319844194321	-4.81354579135968	0	0	0	0
6.500000000000025	-2.646715603907635	-3.573523511767243	-26.59183579925601	0	0.95	0	14.53635511636243	5.919219108332383	-1.607173535657895	-12.26834391159068	0.7954191289113156	0.2124238039766321	0	6.089655513503712	-9.506789126645748	7.061262155189724	-49.7830659816813	-13.91066600526765	-4.858601754934516	0	0	0	0
6.525000000000025	-2.576877937439946	-3.539944612901676	-26.92666339832188	0	0.95	0	13.38394753109121	6.056258032243811	-1.420561317799861	-11.49209052660928	1.061017118785956	0.3636031014675934	0	7.561980900014617	-9.514539167722541	6.901082396293628	-50.71176125667736	-12.28879410339334	-4.969835693747032	0	0	0	0
6.550000000000026	-2.542216644563556	-3.408726309880972	-27.23196051628867	0	0.95	0	12.24866276178946	6.101259271125234	-1.150504660978626	-10.63605405884244	1.309770762763862	0.4755265434585758	0	9.108920432034706	-9.276246538666427	6.716784207900907	-51.38252825688153	-10.74954234058215	-4.911759671389296	0	0	0	0
6.575000000000026	-2.486323428123407	-3.236513114266023	-27.54548383602915	0	0.95	0	11.11387044834545	6.085240688067415	-0.8375243074212512	-9.785497007516325	1.534555665335423	0.5762836300015959	0	10.71082825162501	-8.839375394318658	6.372359656603393	-51.68038290317246	-9.273312844078729	-4.513153778381753	0	0	0	0
6.600000000000026	-2.447750364181175	-3.014384733666662	-27.86042279109907	0	0.95	0	10.04433417323278	6.012887584494961	-0.4584255360159037	-8.957459756344678	1.729448307408954	0.6424537032893567	0	12.27440142260301	-8.321734238921211	5.970424257684289	-51.72056044398238	-7.896462423887212	-3.993456243834434	0	0	0	0
6.625000000000027	-2.372261659788708	-2.792045514486176	-28.17635781856424	0	0.95	0	9.005979289363678	5.890882152197525	-0.10704498221251	-8.235932458870533	1.918591447819874	0.7230635389535014	0	13.8327299332949	-7.757575876992991	5.514593116315905	-51.35811143180541	-6.594846807890409	-3.378562356260681	0	0	0	0
6.650000000000027	-2.286212938408097	-2.551738645674584	-28.48361729641023	0	0.95	0	8.045448024142532	5.70115279073518	0.2436893367834876	-7.578327809114047	2.089852796416641	0.8141037986737021	0	15.33220214337978	-7.214981582944144	5.089520305831921	-50.74547781277152	-5.444040771027715	-2.75198753644352	0	0	0	0
6.675000000000027	-2.155878735921993	-2.30692163719792	-28.77307227671106	0	0.95	0	7.105351727657237	5.47434864165101	0.581271145819251	-7.001325385463217	2.224537319032918	0.8304783547400008	0	16.79857990074882	-6.66323996332317	4.622742913098747	-49.7898817808192	-4.373917805715731	-2.088366667867352	0	0	0	0
6.700000000000028	-2.037501662396339	-2.063479936146217	-29.01565113121459	0	0.95	0	6.220538503912165	5.248268736104943	0.9351163135087803	-6.435728010049146	2.356482283045458	0.7714470042601572	0	18.17531161242877	-6.218509206915448	4.162408528241452	-48.62182905306443	-3.503216876170383	-1.382369605573739	0	0	0	0
6.725000000000028	-1.898102910714205	-1.822145869120639	-29.23362663556781	0	0.95	0	5.321228772147105	5.024428927124986	1.298052247941967	-5.881243557735605	2.482412141838794	0.6446979851438138	0	19.5152084719168	-5.813181659933436	3.639430018427629	-47.11239293131733	-2.656069520566083	-0.5878670113916482	0	0	0	0
6.750000000000028	-1.759308288670032	-1.544095731363965	-29.46840938183081	0	0.95	0	4.399525773843967	4.763689922397374	1.74026552611282	-5.233846759434044	2.532455415669256	0.4672676132641295	0	20.72911136562547	-5.433860111150802	3.062057906500849	-45.3937607807631	-1.929872732743529	0.07108376036664489	0	0	0	0
6.775000000000029	-1.617467632680894	-1.289575098828833	-29.67869872380985	0	0.95	0	3.46397872235721	4.527620267288198	2.141502921951591	-4.595706297976526	2.586344898281323	0.2439175282553538	0	21.83062275470829	-5.034753928011371	2.402159571540766	-43.29372837417051	-1.292464904630581	0.5869845476885744	0	0	0	0
6.800000000000029	-1.511703342113238	-1.042075371646442	-29.84408877915496	0	0.95	0	2.596963033720604	4.285813371123585	2.50360979470838	-3.995063075005468	2.694549470827868	0.06013162198738111	0	22.87357308066727	-4.67555075526168	1.745163178810492	-41.07704630790396	-0.8650114118448009	1.033334735754083	0	0	0	0
6.825000000000029	-1.39834106442546	-0.82053936769249	-30.00754600201593	0	0.95	0	1.722689109633772	4.059193899533729	2.819822805124309	-3.432235433132931	2.814633849738539	-0.1268450835233216	0	23.8554375592504	-4.292942562601008	0.9768333307001297	-38.60840525377811	-0.6165461948621922	1.490676709481147	0	0	0	0
